<?xml version="1.0" encoding="UTF-8"?><svg id="a" xmlns="http://www.w3.org/2000/svg" viewBox="0 0 520.03 263.63"><g><path d="M304.95,145.11c0,4.24-.85,7.98-2.56,11.22s-4,5.92-6.88,8.02c-3.41,2.52-7.06,4.3-10.96,5.35s-8.93,1.58-15.1,1.58h-26V86.08h24.04c6.45,0,11.29,.2,14.52,.6,3.23,.4,6.32,1.34,9.28,2.83,3.25,1.64,5.62,3.78,7.12,6.43s2.25,5.76,2.25,9.35c0,4-1.13,7.58-3.38,10.75-2.25,3.16-5.37,5.64-9.35,7.43v.46c5.4,1.37,9.59,3.88,12.55,7.53,2.97,3.65,4.45,8.2,4.45,13.66m-16.82-38.23c0-2.06-.37-3.84-1.1-5.35-.73-1.51-1.91-2.7-3.53-3.58-1.95-1.03-4.12-1.66-6.51-1.89s-5.7-.34-9.92-.34h-11.57v24.94h13.7c3.77,0,6.56-.18,8.34-.54,1.79-.36,3.63-1.12,5.54-2.26,1.83-1.11,3.12-2.56,3.9-4.35,.77-1.79,1.16-4,1.16-6.64m4.28,38.7c0-3.21-.49-5.86-1.46-7.94s-2.94-3.85-5.91-5.31c-1.91-.95-3.99-1.57-6.24-1.83-2.25-.27-5.45-.4-9.59-.4h-13.7v31.54h9.8c5.28,0,9.44-.23,12.49-.69,3.04-.46,5.72-1.43,8.04-2.92,2.27-1.49,3.94-3.18,4.99-5.08,1.06-1.89,1.58-4.35,1.58-7.37" fill="#fff"/><polygon points="316.94 171.27 316.94 86.08 373.72 86.08 373.72 96.15 328.98 96.15 328.98 119.5 370.67 119.5 370.67 129.58 328.98 129.58 328.98 161.2 373.72 161.2 373.72 171.27 316.94 171.27" fill="#fff"/><path d="M412.16,172.8c-6.57,0-12.16-.64-16.76-1.91-4.6-1.28-8.93-2.85-12.99-4.72v-14.18h.85c3.97,3.5,8.47,6.22,13.5,8.14s9.88,2.88,14.54,2.88c6.65,0,11.68-1.3,15.08-3.92,3.41-2.61,5.11-6.05,5.11-10.32,0-3.4-.89-6.16-2.68-8.29-1.78-2.14-4.62-3.72-8.51-4.75-2.8-.76-5.36-1.39-7.67-1.89-2.31-.49-5.21-1.16-8.7-2-3.12-.76-5.92-1.74-8.4-2.92-2.48-1.18-4.67-2.73-6.57-4.63-1.87-1.87-3.32-4.07-4.35-6.61-1.03-2.53-1.55-5.46-1.55-8.78,0-6.9,2.86-12.69,8.58-17.36s13.02-7.01,21.9-7.01c5.07,0,9.87,.48,14.39,1.43,4.52,.96,8.71,2.31,12.56,4.07v13.57h-.91c-2.88-2.48-6.57-4.65-11.07-6.5s-9.22-2.78-14.17-2.78c-5.6,0-10.12,1.23-13.56,3.69-3.45,2.46-5.17,5.69-5.17,9.69,0,3.62,1.01,6.5,3.04,8.63s4.97,3.7,8.82,4.69c2.55,.65,5.68,1.38,9.37,2.2,3.69,.82,6.76,1.57,9.19,2.26,6.25,1.79,10.81,4.5,13.69,8.12s4.32,8.08,4.32,13.38c0,3.32-.72,6.6-2.16,9.84-1.44,3.24-3.46,5.99-6.05,8.23-2.92,2.48-6.22,4.39-9.89,5.72-3.67,1.34-8.27,2-13.78,2" fill="#fff"/><polygon points="477.54 171.27 477.54 96.15 447.09 96.15 447.09 86.08 520.03 86.08 520.03 96.15 489.58 96.15 489.58 171.27 477.54 171.27" fill="#fff"/><path d="M198.23,171.39l-19.97-11.51h-52.14l-19.96,11.51c19.1,33.19,76.22,87.54,138.1,92.24-21.56-12.08-55.88-55.48-46.03-92.24" fill="#fff"/><path d="M155.48,109.03h0l-.39-.68,.39,.68ZM212.32,0c.32,24.72-20.09,76.13-56.86,85.98v23.04l26.08,45.16,19.95,11.54c19.19-33.14,37.71-109.77,10.83-165.72" fill="#fff"/><path d="M122.84,154.19h0l-.39,.68,.39-.68Zm26.09-68.2c-38.29-.05-113.92,22.24-148.93,73.49,21.25-12.64,75.98-20.67,102.9,6.25l19.94-11.54,26.07-45.15v-23.05h.02Z" fill="#fff"/><path d="M139.97,141.03c0-6.74,5.47-12.21,12.22-12.21s12.22,5.47,12.22,12.21-5.47,12.22-12.22,12.22-12.22-5.45-12.22-12.22" fill="#fff"/></g><g><path d="M332.94,205.03c-1.5,0-2.88-.25-4.13-.75-1.26-.5-2.34-1.25-3.25-2.25s-1.62-2.24-2.12-3.72-.75-3.2-.75-5.12,.24-3.59,.73-5.02c.49-1.43,1.2-2.67,2.13-3.72,.91-1.03,2-1.81,3.25-2.35,1.25-.54,2.65-.81,4.2-.81,.77,0,1.49,.06,2.16,.17s1.29,.26,1.87,.43c.49,.15,1,.35,1.52,.58s1.03,.48,1.53,.76v3.68h-.25c-.27-.25-.61-.54-1.03-.89s-.93-.69-1.54-1.03c-.58-.32-1.22-.58-1.91-.79-.69-.21-1.48-.31-2.38-.31-.97,0-1.9,.2-2.77,.6-.87,.4-1.64,.99-2.29,1.77s-1.15,1.76-1.51,2.94-.54,2.51-.54,3.99c0,1.57,.19,2.92,.57,4.05s.9,2.09,1.55,2.87c.64,.76,1.38,1.33,2.25,1.72,.86,.38,1.77,.58,2.74,.58,.88,0,1.7-.11,2.45-.32s1.42-.49,2-.82c.56-.32,1.05-.64,1.46-.98,.41-.33,.73-.62,.97-.85h.23v3.63c-.5,.24-.98,.46-1.42,.68-.45,.21-.99,.43-1.62,.63-.67,.21-1.29,.38-1.85,.49s-1.31,.17-2.22,.17h-.03Z" fill="#fff"/><path d="M356.19,204.62h-13.28v-22.91h3.05v20.2h10.23v2.71Z" fill="#fff"/><path d="M366.59,205.1c-1.34,0-2.52-.18-3.52-.53s-1.86-.88-2.57-1.58c-.8-.8-1.36-1.76-1.69-2.87-.33-1.11-.49-2.48-.49-4.12v-14.29h3.05v14.29c0,1.06,.07,1.95,.2,2.67s.39,1.37,.79,1.95c.41,.62,.97,1.08,1.67,1.4,.7,.32,1.56,.48,2.58,.48,.95,0,1.8-.16,2.54-.48,.74-.32,1.31-.78,1.72-1.4,.38-.58,.64-1.23,.78-1.94s.21-1.57,.21-2.6v-14.37h3.05v14.29c0,1.59-.16,2.96-.48,4.09s-.89,2.1-1.7,2.89c-.73,.71-1.58,1.24-2.55,1.58-.97,.35-2.16,.52-3.56,.52l-.03,.02Z" fill="#fff"/><path d="M387.89,198.66c0,2.01-.61,3.56-1.84,4.65s-2.87,1.63-4.93,1.63c-.49,0-1.15-.04-1.98-.13-.83-.09-1.52-.19-2.07-.32v-2.91h.17c.42,.14,.94,.3,1.56,.48,.62,.17,1.25,.26,1.9,.26,.94,0,1.7-.11,2.25-.32,.56-.21,.97-.52,1.24-.92,.28-.41,.45-.91,.53-1.51,.08-.59,.12-1.28,.12-2.06v-13.37h-4.85v-2.43h7.89v16.96h.01Z" fill="#fff"/><path d="M400.12,195.99h-8.68v-2.79h8.68v2.79Z" fill="#fff"/><path d="M420.22,204.62h-3.42l-10.12-19.76v19.76h-2.85v-22.91h4.32l9.22,18.14v-18.14h2.85v22.91Z" fill="#fff"/><path d="M422.39,204.62l7.72-22.91h3.75l7.72,22.91h-3.22l-2.08-6.4h-8.75l-2.08,6.4h-3.06Zm13.06-9l-3.54-10.8-3.52,10.8h7.06Z" fill="#fff"/><path d="M458.22,188.62c0,1-.18,1.94-.53,2.82-.35,.89-.84,1.64-1.47,2.27-.79,.78-1.72,1.37-2.79,1.77-1.07,.4-2.42,.6-4.05,.6h-2.58v8.54h-3.05v-22.91h5.75c1.35,0,2.51,.11,3.46,.34s1.79,.59,2.52,1.09c.85,.58,1.52,1.33,2,2.22,.48,.9,.72,1.98,.72,3.25h.02Zm-3.17,.09c0-.79-.14-1.48-.41-2.06s-.68-1.06-1.24-1.43c-.48-.32-1.04-.54-1.69-.68-.64-.13-1.44-.2-2.39-.2h-2.52v9.16h2.08c1.23,0,2.23-.1,2.99-.3,.76-.2,1.39-.56,1.89-1.07,.45-.46,.78-.96,.98-1.51s.31-1.18,.31-1.91h0Z" fill="#fff"/><path d="M477.34,184.34c.87,1.01,1.55,2.25,2.03,3.74,.48,1.49,.72,3.18,.72,5.09s-.24,3.53-.71,5.03c-.47,1.5-1.15,2.75-2.05,3.77-.93,1.07-2.02,1.85-3.27,2.36s-2.62,.76-4.12,.76-2.94-.26-4.19-.78-2.31-1.3-3.2-2.34c-.88-1.02-1.56-2.27-2.03-3.75-.47-1.49-.71-3.17-.71-5.05s.24-3.62,.72-5.08,1.16-2.71,2.04-3.75c.88-1.02,1.95-1.79,3.19-2.32s2.64-.79,4.18-.79,2.96,.27,4.22,.82c1.25,.54,2.31,1.31,3.17,2.29h.01Zm-.42,8.83c0-1.52-.16-2.86-.49-4.03s-.79-2.14-1.38-2.91c-.61-.79-1.34-1.38-2.19-1.78-.86-.39-1.82-.59-2.89-.59s-2.07,.19-2.9,.58c-.83,.38-1.56,.98-2.19,1.79-.61,.78-1.07,1.76-1.39,2.94s-.48,2.51-.48,4c0,3.01,.63,5.31,1.89,6.9,1.26,1.59,2.95,2.39,5.08,2.39s3.81-.8,5.07-2.39,1.88-3.9,1.88-6.9h0Z" fill="#fff"/><path d="M492.38,205.03c-1.5,0-2.88-.25-4.13-.75-1.26-.5-2.34-1.25-3.25-2.25s-1.62-2.24-2.12-3.72-.75-3.2-.75-5.12,.24-3.59,.73-5.02c.49-1.43,1.2-2.67,2.13-3.72,.91-1.03,2-1.81,3.25-2.35,1.25-.54,2.65-.81,4.2-.81,.77,0,1.49,.06,2.16,.17s1.29,.26,1.87,.43c.49,.15,1,.35,1.52,.58s1.03,.48,1.53,.76v3.68h-.25c-.27-.25-.61-.54-1.03-.89-.42-.35-.93-.69-1.54-1.03-.58-.32-1.22-.58-1.91-.79-.69-.21-1.48-.31-2.38-.31-.97,0-1.9,.2-2.77,.6-.87,.4-1.64,.99-2.29,1.77-.65,.78-1.15,1.76-1.51,2.94s-.54,2.51-.54,3.99c0,1.57,.19,2.92,.57,4.05s.9,2.09,1.55,2.87c.64,.76,1.38,1.33,2.25,1.72,.86,.38,1.77,.58,2.74,.58,.88,0,1.7-.11,2.45-.32s1.42-.49,2-.82c.56-.32,1.05-.64,1.46-.98,.41-.33,.73-.62,.97-.85h.23v3.63c-.5,.24-.98,.46-1.42,.68-.45,.21-.99,.43-1.62,.63-.67,.21-1.29,.38-1.85,.49s-1.31,.17-2.22,.17h-.03Z" fill="#fff"/><path d="M499.88,204.62l7.72-22.91h3.75l7.72,22.91h-3.22l-2.08-6.4h-8.75l-2.08,6.4h-3.06Zm13.06-9l-3.54-10.8-3.52,10.8h7.06Z" fill="#fff"/></g></svg>