<?xml version="1.0" encoding="UTF-8"?><svg id="a" xmlns="http://www.w3.org/2000/svg" viewBox="0 0 139.23 76.05"><path d="M114.88,56.11c4.4,0,8.27-.74,12.09-1.84,3.78-1.09,7.45-2.5,11.14-3.84,.21-.08,.48-.3,.65-.12,.19,.2,0,.5-.09,.74-.22,.57-.7,.89-1.22,1.13-3.92,1.86-7.89,3.58-12.03,4.89-3.16,1-6.36,1.78-9.67,2.1-3.58,.35-7.13,.19-10.58-.92-4.27-1.37-7.61-3.98-10.19-7.62-.76-1.07-1.44-2.17-2.01-3.35-.27-.55-.38-.6-.93-.36-1.79,.79-3.6,1.53-5.5,2.05-.47,.13-.95,.21-1.43,.29-.37,.05-.65-.08-.81-.43-.34-.72-.49-1.5-.6-2.29-.04-.27,.18-.37,.38-.49,1.51-.86,3.1-1.56,4.68-2.28,1.25-.57,2.5-1.13,3.76-1.69,.36-.16,.55-.42,.66-.8,1.19-4.37,2.8-8.58,4.91-12.59,1-1.9,2.01-3.81,3.43-5.45,.87-1,1.82-1.91,3.04-2.49,.52-.24,1.06-.41,1.64-.43,.56-.02,.75,.12,.9,.66,.29,1,.26,2,.05,3-.42,1.96-1.34,3.7-2.37,5.39-1.27,2.09-2.57,4.16-3.65,6.35-.31,.62-.58,1.26-.86,1.89-.05,.12-.18,.25-.07,.38,.12,.13,.29,.07,.43,.03,.62-.19,1.25-.36,1.87-.57,4.07-1.39,8.14-2.79,12.22-4.17,1.54-.52,3.1-.97,4.65-1.46,.36-.12,.55-.05,.7,.32,.42,1.06,.96,2.07,1.16,3.2,0,.01,0,.03,0,.04,.18,1.34-.11,1.6-1.18,1.68-1.99,.15-3.98,.38-5.95,.71-3.57,.59-7.09,1.38-10.42,2.84-1.7,.75-3.3,1.66-4.73,2.85-.45,.38-.78,.79-.9,1.39-.14,.71-.35,1.41-.36,2.13,0,2.02,.79,3.68,2.48,4.77,2.94,1.89,6.16,3.13,9.58,3.81,1.82,.36,3.65,.54,5.1,.52Z" fill="#fff"/><path d="M33.07,27.07c0-2.56,0-5.11,.01-7.67,0-.35-.12-.45-.46-.45-2.32,.01-4.64,0-6.96,0-.66,0-.75-.07-.73-.75,.06-1.5,.06-3,.05-4.5,0-.72-.05-1.44-.05-2.16,0-.69,.09-.78,.76-.78,2.25,0,4.5,0,6.75,0,.63,0,.74,.1,.73,.72-.05,2.26-.06,4.52-.05,6.79,0,.57,0,.57,.54,.57,2.35,0,4.69,0,7.04,0,.41,0,.55-.11,.55-.54-.02-2.29,0-4.58,0-6.87,0-.57,.12-.68,.68-.68,2.25,0,4.5,0,6.75,0,.68,0,.77,.09,.77,.77,0,2.24,0,4.47,0,6.71,0,.64-.07,.71-.72,.71-2.28,0-4.55,.01-6.83,0-.42,0-.55,.12-.55,.54,.02,2.35,0,4.69,0,7.04,0,.55,0,.56,.56,.55,1.1-.02,2.19-.02,3.29-.03,1.16-.02,2.33,.04,3.5,.04,.64,0,.71-.08,.72-.72,0-2.07,0-4.14,0-6.21,0-.19-.03-.39-.04-.58-.02-.51,.11-.65,.62-.65,1.18,0,2.36,0,3.54,0,1.1,0,2.19,0,3.29,0,.66,0,.77,.11,.77,.78,0,2.19,0,4.39,0,6.58,0,2.81,0,5.61,.01,8.42,0,.42-.14,.52-.53,.52-3.61,0-7.22-.02-10.83,0-1.44,0-2.89-.06-4.33,.05-.53,.04-.67-.11-.67-.64,0-2.32-.01-4.64,0-6.96,0-.42-.11-.55-.54-.55-2.53,.01-5.05-.04-7.58,.02l-.07-.07Z" fill="#fff"/><path d="M12.79,43.34c1.18,0,2.36-.02,3.54,0,.41,0,.51-.14,.51-.53-.02-1.67,0-3.33-.02-5,0-.64-.07-1.27-.05-1.91,.01-.57,.13-.7,.68-.71,2.32,0,4.64,0,6.96,0,.48,0,.6,.12,.6,.59,0,2.32,0,4.64,0,6.96,0,.53-.11,.63-.64,.63-2.31,0-4.61,0-6.92,0-.57,0-.58,0-.58,.58,0,2.28,0,4.56,0,6.83,0,.62-.1,.74-.72,.74-2.25,0-4.5,0-6.75,0-.62,0-.74-.13-.74-.77,0-2.24,0-4.47,0-6.71q0-.68-.7-.68c-2.24,0-4.47,0-6.71,0-.66,0-.74-.07-.74-.74,.02-3.78,.05-7.55,.05-11.33,0-1.19-.06-2.39-.05-3.58,0-.61,.12-.71,.71-.66,.19,.02,.39,.02,.58,.02,4.42,0,8.83,0,13.25,0,.42,0,.83-.04,1.25-.05,.39-.01,.57,.14,.57,.57-.02,2.35,0,4.69,0,7.04,0,.54-.09,.63-.68,.63-2.28,0-4.56,0-6.83,0q-.65,0-.65,.67c0,2.29,0,4.58-.01,6.87,0,.39,.1,.54,.51,.53,1.19-.02,2.39,0,3.58,0Z" fill="#fff"/><path d="M70.33,36.21c0-1.7,.04-3.59,0-5.47-.09-3.24-.19-6.49-.47-9.73-.41-4.86-1.12-9.67-2.35-14.4-.12-.46-.24-.91-.36-1.37-.16-.63,.04-1.15,.51-1.58,.62-.56,1.37-.9,2.15-1.14,.49-.15,1-.25,1.49-.39,.37-.1,.62,0,.86,.31,1.43,1.92,2.3,4.08,2.78,6.4,.37,1.8,.48,3.63,.51,5.46,.07,3.14,.1,6.27,.17,9.41,.09,3.94,.1,7.89,.03,11.83-.08,4.58-.37,9.15-1.03,13.68-.18,1.25-.38,2.5-.62,3.74-.04,.22-.09,.44-.18,.64-.17,.4-.42,.52-.84,.38-.37-.12-.71-.32-1.12-.29-.22,.01-.28-.19-.34-.36-.34-.89-.49-1.82-.61-2.76-.33-2.59-.47-5.19-.53-7.8-.05-2.12-.01-4.25-.07-6.56Z" fill="#fff"/><path d="M134.68,0c.48,.02,.84-.02,1.2,.07,.28,.07,.61,.09,.66,.47,.04,.4-.08,.74-.41,.99-.21,.15-.45,.2-.7,.27-1.3,.35-2.63,.57-3.96,.77-1.23,.19-2.38,.67-3.53,1.11-6.27,2.42-12.43,5.1-18.53,7.92-4.58,2.11-9.13,4.27-13.65,6.49-2.77,1.36-5.53,2.72-8.3,4.08-1.49,.74-3.15-.18-3.29-1.83-.06-.72-.1-1.44-.16-2.16-.03-.34,.1-.57,.38-.77,.77-.58,1.61-1.04,2.47-1.46,3.85-1.9,7.84-3.48,11.85-5,6.11-2.32,12.27-4.53,18.49-6.54,4.23-1.37,8.48-2.64,12.8-3.69,1.58-.38,3.18-.68,4.69-.72Z" fill="#fff"/><path d="M41.27,51.53c-2.47,0-4.94,0-7.42,0-.68,0-.74-.07-.75-.73,0-4.96-.01-9.92-.02-14.87,0-.63,.1-.73,.72-.73,2.29,0,4.58,0,6.87,0,.56,0,.6,.05,.6,.63,0,2.28,0,4.56,0,6.83q0,.7,.72,.7c2.26,0,4.53,0,6.79,0,.57,0,.64,.07,.65,.65,0,2.31,0,4.61,0,6.92,0,.54-.1,.63-.68,.63-2.5,0-5,0-7.5,0h0Z" fill="#fff"/><path d="M12.81,18.97c-1.18,0-2.36,0-3.54,0-.51,0-.6-.08-.6-.57,0-2.35,0-4.69,0-7.04,0-.44,.12-.57,.58-.57,2.35,0,4.69,0,7.04,0,.5,0,.59,.11,.59,.64,0,2.29,0,4.58,0,6.87,0,.56,0,.55,.55,.57,1.94,.07,3.89,.06,5.83,.05,.37,0,.75-.06,1.12-.04,.52,.03,.65,.18,.65,.71,0,1.44,0,2.89,0,4.33,0,.82,.01,1.64,0,2.46,0,.59-.16,.74-.75,.74-2.25,0-4.5,0-6.75,0-.64,0-.77-.11-.75-.75,.06-2.26,.05-4.53,.05-6.79q0-.62-.6-.62c-1.14,0-2.28,0-3.42,0Z" fill="#fff"/><path d="M29.1,51.51c1.11,0,2.22,0,3.33,0,.68,0,.76,.06,.75,.77-.01,1.05-.03,2.11-.02,3.16,0,1.14,0,2.27,.02,3.41,0,.75-.1,.85-.83,.85-2.19,0-4.39,0-6.58,0-.74,0-.86-.1-.83-.85,.06-1.57,.06-3.13,.05-4.7,0-.62-.05-1.25-.05-1.87,0-.71,.09-.78,.79-.77,1.12,.01,2.25,0,3.37,0h0Z" fill="#fff"/><path d="M16.83,6.74c0-1.11,0-2.22,0-3.33,0-.74,.06-.8,.81-.79,1.57,.01,3.13,.05,4.7,.05,.66,0,1.33-.05,1.99-.05,.53,0,.67,.14,.67,.67,0,2.32,0,4.63,0,6.95,0,.51-.13,.64-.71,.61-1.83-.09-3.66-.04-5.49-.05-.44,0-.89,.05-1.33,.05-.56,0-.65-.11-.65-.66,0-1.15,0-2.3,0-3.45Z" fill="#fff"/><path d="M33.14,27.14c-.03,2.14-.04,4.27,.04,6.41,.01,.3,0,.61,0,.92,0,.71-.11,.82-.83,.81-.76,0-1.52-.06-2.29-.05-1.44,0-2.88,.04-4.33,.05-.69,0-.83-.11-.79-.8,.07-1.54,.05-3.08,.05-4.62,0-.62-.05-1.25-.05-1.87,0-.89,.07-.98,.93-.95,2.21,.08,4.41,.05,6.62,.05,.19,0,.39,0,.58-.02l.07,.07Z" fill="#fff"/><path d="M71.24,76.05c-.49,.02-.96-.02-1.4-.2-1.04-.43-1.22-1.53-.37-2.26,.18-.15,.25-.29,.11-.49-.33-.47-.23-.89,.14-1.28,.14-.15,.21-.26,0-.43-.89-.75-.65-2.15,.44-2.61,.7-.29,1.43-.37,2.16-.11,.31,.11,.52,.1,.64-.26,.1-.32,.39-.46,.71-.52,.4-.08,.61,.05,.69,.4,.08,.4-.07,.64-.47,.73q-.52,.11-.37,.63c.25,.88-.22,1.75-1.11,2.05-.45,.15-.91,.22-1.39,.13-.21-.04-.49-.1-.55,.21-.05,.32,.21,.45,.46,.47,.57,.06,1.13,.07,1.7,.11,.97,.06,1.51,.48,1.58,1.28,.07,.77-.36,1.29-.96,1.68-.6,.39-1.28,.53-1.98,.49Zm.13-.77c.39,0,.78-.04,1.12-.25,.31-.19,.47-.47,.39-.84-.08-.36-.34-.47-.68-.48-.41-.02-.83-.06-1.24-.08-.53-.02-.73,.12-.82,.56-.09,.46,.11,.84,.53,1.01,.23,.09,.46,.08,.7,.09Zm0-4.25c.61,0,.89-.23,.9-.78,.01-.59-.3-.93-.86-.95-.53-.01-.94,.34-.95,.83-.02,.56,.32,.88,.91,.89Z" fill="#fff"/><path d="M52.26,68.42c.03,1.65-.11,3.12,.05,4.58,.04,.31-.13,.51-.47,.49-.27-.02-.59,.11-.81-.19-.08-.11-.21-.05-.3,0-1.68,1.06-3.54-.53-3.24-2.47,.19-1.22,.88-2.1,1.91-2.3,.36-.07,.72-.04,1.07,.07,.37,.12,.48-.02,.45-.37-.03-.4,0-.8-.06-1.2-.07-.47,.07-.64,.5-.68,.61-.06,.87,.1,.89,.58,.02,.55,0,1.11,0,1.48Zm-1.25,2.75h.01c-.02-.37-.05-.75-.06-1.12-.01-.45-.29-.59-.68-.6-.76-.02-1.24,.39-1.4,1.2-.17,.9,.19,1.74,.85,1.96,.76,.25,1.28-.11,1.27-.9,0-.18,0-.36,0-.54Z" fill="#fff"/><path d="M102.61,70.18c0-.87,0-1.75,0-2.62,0-.57,.06-.63,.61-.63,1,0,2,0,3,0,.25,0,.47,0,.49,.35,.02,.47-.11,.73-.46,.75-.55,.03-1.11,0-1.66-.05-.59-.06-.65,0-.63,.6,0,.14,.01,.28,.02,.42,.03,.59,.07,.63,.66,.6,.36-.02,.72-.06,1.08-.07,.47,0,.49,.06,.53,.57,.03,.41-.19,.51-.52,.51-.39,0-.77-.02-1.16-.05-.46-.04-.53,.04-.53,.5,0,.32,.01,.64,0,.96,0,.31,.13,.42,.43,.41,.65-.03,1.3-.07,1.95-.08,.5,0,.55,.09,.54,.69,0,.41-.27,.48-.59,.46-1.04-.05-2.08-.07-3.12,.01-.48,.04-.63-.11-.64-.59,0-.92,0-1.83,0-2.75Z" fill="#fff"/><path d="M97.6,73.62c-.28,0-.63-.05-.98-.12-1.31-.29-2.06-1.45-1.84-2.83,.23-1.42,1.29-2.25,2.63-2.19,1.17,.06,1.88,.99,2,1.94,.08,.62-.11,.85-.73,.86-.69,.01-1.39,0-2.08,.02-.49,0-.56,.16-.3,.58,.3,.48,.75,.69,1.3,.7,.36,0,.72-.05,1.08-.09,.22-.02,.47-.17,.55,.21,.08,.39-.03,.65-.38,.76-.37,.11-.76,.16-1.24,.16Zm0-3.12c.16-.04,.35,.07,.44-.14,.09-.18,0-.35-.08-.51-.19-.35-.51-.47-.87-.43-.44,.04-.73,.3-.89,.71-.09,.24-.04,.37,.24,.37,.39,0,.77,0,1.16,0Z" fill="#fff"/><path d="M85.77,73.62c-1.51,0-2.44-.67-2.72-1.94-.41-1.87,1-3.42,2.89-3.16,1.08,.15,1.87,1.3,1.65,2.37-.07,.32-.27,.39-.55,.39-.72,0-1.44,.01-2.17,.02-.16,0-.36-.05-.45,.13-.08,.17,.04,.32,.13,.46,.29,.46,.72,.69,1.25,.7,.37,0,.75-.05,1.12-.09,.21-.02,.47-.17,.52,.18,.04,.3,.08,.64-.32,.76-.44,.14-.9,.19-1.36,.18Zm.05-3.11c.16-.05,.35,.06,.45-.13,.1-.19,0-.38-.1-.55-.2-.34-.52-.44-.89-.4-.43,.05-.69,.32-.84,.71-.1,.25,0,.37,.26,.36,.37,0,.74,0,1.12,0Z" fill="#fff"/><path d="M68.28,71.71c0,.34,0,.81,0,1.28,0,.42-.15,.53-.66,.53-.49,0-.66-.12-.68-.52-.02-.4-.02-.8,.03-1.21,.06-.53,.06-1.05-.05-1.57-.1-.47-.45-.7-1.01-.64-.66,.07-.89,.27-.9,.8,0,.85,.01,1.69,.01,2.54,0,.47-.14,.6-.63,.6-.52,0-.71-.14-.71-.59,0-.44,.05-.89,.06-1.33,.03-.79,0-1.58-.17-2.36-.08-.37,.03-.56,.42-.58,.35-.01,.75-.23,.93,.31,.05,.14,.22,0,.32-.07,.61-.38,1.25-.51,1.95-.3,.57,.16,.89,.52,1.01,1.09,.14,.62,0,1.25,.07,2Z" fill="#fff"/><path d="M0,70.15c0-.9,0-1.8,0-2.71,0-.37,.14-.52,.52-.52,1.05,.01,2.11,0,3.16,0,.28,0,.49,.04,.48,.41-.02,.63-.05,.71-.48,.71-.62,0-1.25-.04-1.87-.08-.37-.02-.55,.07-.48,.49,.05,.33,.03,.66,.03,1,0,.29,.13,.38,.42,.36,.44-.03,.89-.03,1.33-.04,.45,0,.44,.31,.45,.63,.01,.32-.14,.46-.45,.46-.42,0-.83,0-1.25-.02-.37-.03-.53,.13-.5,.48,.05,.53,.06,1.05,.05,1.58,0,.5-.13,.61-.66,.62-.57,.01-.75-.14-.76-.63,0-.92,0-1.83,0-2.75H0Z" fill="#fff"/><path d="M55.91,73.62c-1.64,0-2.6-.8-2.78-2.37-.11-.98,.28-1.81,1.12-2.35,.82-.53,1.71-.57,2.57-.13,.68,.35,1.08,1.46,.87,2.23-.07,.25-.26,.27-.46,.27-.74,.01-1.47,.01-2.21,.02-.16,0-.36-.05-.45,.13-.09,.19,.04,.35,.13,.5,.37,.58,.94,.69,1.56,.66,.28-.01,.55-.05,.83-.09,.2-.03,.44-.16,.49,.17,.05,.3,.09,.64-.29,.77-.45,.15-.92,.19-1.39,.19Zm-.42-3.09v-.02c.22,0,.44,0,.66,0,.31,0,.38-.15,.31-.43-.12-.44-.4-.67-.86-.69-.48-.02-.83,.24-1,.71-.1,.28-.05,.43,.27,.43,.21,0,.41,0,.62,0Z" fill="#fff"/><path d="M113.11,73.62c-1.67,0-2.63-.77-2.81-2.3-.12-.98,.28-1.82,1.07-2.4,.77-.57,1.65-.62,2.52-.2,.67,.32,1.15,1.33,1.03,2.08-.06,.36-.29,.48-.61,.48-.71,0-1.41,0-2.12,.01-.49,0-.59,.19-.32,.61,.37,.6,.96,.71,1.6,.67,.32-.02,.63-.07,.95-.11,.31-.05,.42,.11,.38,.38-.05,.34-.2,.61-.58,.67-.38,.06-.77,.14-1.09,.11Zm-.42-3.09v-.02c.19,0,.39,0,.58,0,.39-.01,.48-.16,.35-.53-.13-.4-.45-.54-.82-.59-.42-.05-.81,.19-1.01,.58-.21,.42-.13,.55,.32,.56,.19,0,.39,0,.58,0Z" fill="#fff"/><path d="M82.12,71.52c0,.5,0,1,0,1.5,0,.33-.13,.47-.48,.46-.94-.02-.96-.04-.85-1,.08-.75,.12-1.5-.03-2.24-.11-.55-.4-.71-1.16-.61-.46,.06-.77,.24-.74,.8,.04,.85,0,1.69,.01,2.54,0,.37-.15,.54-.51,.55-.57,.02-.82-.11-.83-.52-.01-.48,.03-.97,.05-1.45,.03-.78,0-1.56-.15-2.32-.07-.38,.05-.55,.44-.55,.14,0,.28-.03,.41-.05,.11-.01,.27-.04,.31,.06,.2,.57,.48,.21,.74,.08,.46-.24,.95-.3,1.46-.23,.82,.12,1.29,.66,1.31,1.52,.02,.49,0,.97,0,1.46h0Z" fill="#fff"/><path d="M35,70.99c-.05-1.54,1.31-3.01,3.37-2.34,.85,.28,1.42,1.48,1.18,2.33-.08,.27-.27,.29-.48,.29-.75,.01-1.5,.01-2.25,.02-.46,0-.55,.17-.32,.56,.3,.5,.76,.73,1.32,.73,.36,0,.72-.05,1.08-.09,.21-.02,.46-.17,.54,.17,.06,.3,.03,.59-.29,.75-.23,.11-.48,.15-.73,.17-.94,.07-1.87,.02-2.65-.61-.61-.49-.78-1.18-.77-1.99Zm2.35-.46v-.02c.21,0,.42,0,.62,0,.33,0,.4-.16,.32-.46-.11-.42-.39-.62-.8-.66-.44-.04-.87,.21-1.04,.61-.16,.37-.08,.51,.32,.53,.19,0,.39,0,.58,0Z" fill="#fff"/><path d="M18.89,70.61c-.07,.75,0,1.5,.05,2.24,.01,.21,.12,.53-.15,.59-.31,.06-.71,.23-.98-.09-.17-.2-.29-.18-.49-.06-.18,.11-.37,.2-.57,.25-1.31,.35-2.13-.17-2.28-1.51-.08-.67-.04-1.36-.06-2.03,0-.19,0-.39-.03-.58-.06-.53,.04-.68,.48-.72,.61-.06,.85,.09,.85,.6,0,.79-.05,1.58,.05,2.36,.11,.8,.9,1.18,1.59,.75,.16-.1,.22-.24,.21-.42-.03-.78,.05-1.55-.05-2.33-.01-.08-.01-.17,0-.25,.01-.24-.06-.54,.23-.66,.3-.13,.63-.12,.93,.02,.21,.09,.21,.3,.21,.5,0,.44,0,.89,0,1.33Z" fill="#fff"/><path d="M27.71,69.52c-.21,.02-.46,.03-.7,.06-.18,.02-.39,.18-.5-.09-.1-.25-.07-.49,.12-.69,.04-.04,.09-.08,.14-.09,.97-.24,1.94-.35,2.89,.06,.38,.16,.59,.5,.67,.9,.1,.5,.15,1.02,.09,1.53-.06,.53-.06,1.05,0,1.57,.03,.22,.16,.54-.1,.64-.29,.11-.66,.24-.95,0-.22-.19-.39-.14-.59-.03-.27,.15-.58,.2-.88,.23-.77,.08-1.47-.33-1.62-.95-.18-.75,.23-1.54,.96-1.82,.43-.17,.88-.24,1.34-.27,.2-.01,.48,.1,.51-.26,.03-.34-.07-.6-.43-.71-.3-.09-.6-.06-.95-.08Zm.96,1.77c-.73,0-1.23,.36-1.22,.85,.01,.36,.29,.55,.78,.55,.62,0,.97-.23,.92-.64-.1-.79,.08-.74-.48-.76Z" fill="#fff"/><path d="M44.43,70.73c-.07,.8-.04,1.6,.05,2.4,.02,.21-.04,.34-.29,.35-.34,0-.69,.14-.97-.19-.1-.12-.23,0-.34,.05-.46,.2-.94,.34-1.45,.24-.65-.12-1.07-.5-1.17-1.03-.1-.59,.21-1.26,.73-1.56,.5-.29,1.06-.39,1.64-.42,.17,0,.39,.07,.44-.18,.05-.25,.04-.51-.2-.67-.11-.08-.25-.13-.38-.15-.5-.06-1-.06-1.49,.02-.18,.03-.41,.19-.48-.11-.06-.26-.12-.63,.21-.73,1.04-.31,2.1-.42,3.11,.13,.45,.25,.53,.72,.59,1.18,.02,.22,0,.44,0,.66Zm-1.27,1.13c-.05-.17,.12-.51-.26-.55-.42-.05-.84,.03-1.18,.3-.29,.23-.36,.63-.14,.84,.38,.37,.82,.24,1.25,.12,.36-.1,.35-.39,.33-.72Z" fill="#fff"/><path d="M8.86,71.47c0,.54-.04,1.08,.06,1.62,.04,.24-.05,.37-.3,.38-.32,.01-.66,.14-.93-.18-.12-.13-.26,0-.38,.06-.45,.2-.92,.32-1.42,.23-.56-.1-1.01-.35-1.16-.93-.15-.59,.07-1.1,.51-1.5,.52-.47,1.17-.53,1.83-.58,.2-.02,.46,.08,.49-.23,.03-.29-.02-.56-.33-.7-.1-.05-.21-.09-.32-.09-.5-.02-1-.05-1.49,.04-.18,.04-.41,.15-.47-.14-.06-.26-.09-.59,.21-.69,1.06-.33,2.13-.46,3.14,.13,.48,.28,.52,.8,.55,1.29,.03,.43,0,.86,0,1.29Zm-1.27,.49c-.02-.59-.08-.69-.48-.67-.7,.03-1.22,.39-1.21,.84,0,.36,.32,.57,.83,.55,.66-.02,.88-.2,.86-.72Z" fill="#fff"/><path d="M139.12,71.21c0,.53-.02,1.05,.06,1.58,.03,.21,.13,.53-.08,.61-.29,.11-.67,.24-.95,.01-.25-.2-.43-.15-.67-.04-.45,.2-.92,.3-1.42,.17-.49-.12-.88-.35-1.03-.86-.16-.54-.02-1.02,.36-1.42,.51-.53,1.17-.64,1.87-.69,.24-.02,.57,.11,.59-.32,.02-.37-.17-.64-.57-.69-.52-.07-1.05-.06-1.58,.03-.18,.03-.4,.16-.48-.13-.07-.28-.1-.61,.24-.71,1.02-.3,2.05-.43,3.04,.09,.46,.24,.58,.7,.62,1.16,.03,.4,0,.8,0,1.21Zm-1.26,.69c0-.64-.11-.72-.74-.57-.22,.05-.43,.1-.62,.23-.33,.23-.41,.7-.14,.93,.38,.33,.81,.19,1.22,.07,.34-.1,.28-.4,.28-.66Z" fill="#fff"/><path d="M24.36,67.92c-.02,.72-.02,.73,.66,.77,.38,.02,.53,.19,.53,.58,0,.38-.18,.51-.54,.51-.72,.02-.73,.03-.72,.77,0,.48-.05,.97,.08,1.45,.13,.44,.33,.6,.78,.57,.2-.01,.42-.12,.48,.21,.06,.3,.03,.55-.28,.7-.78,.41-1.9-.1-2.18-1-.13-.41-.14-.85-.15-1.28-.01-.37,0-.75,0-1.12,0-.22-.05-.38-.34-.34-.27,.04-.33-.16-.32-.37,0-.23-.1-.58,.27-.6,.48-.02,.56-.25,.5-.65-.01-.08,.02-.16,.03-.25,.1-.49,.36-.68,.86-.63,.5,.05,.31,.43,.34,.66Z" fill="#fff"/><path d="M120.69,70.85c0-.24,0-.45,0-.65,0-.27-.01-.51-.4-.46-.19,.03-.28-.12-.26-.29,.02-.24-.13-.62,.25-.66,.48-.05,.49-.32,.5-.68,.01-.6,.35-.91,.88-.87,.25,.02,.39,.14,.38,.39,0,.24,0,.47-.04,.71-.04,.29,.05,.42,.35,.41,.15,0,.31,0,.46,.01,.29,.03,.45,.21,.44,.5-.01,.29-.12,.52-.47,.51-.1,0-.19,.01-.29,0-.37-.02-.54,.15-.53,.52,.03,.55-.07,1.11,.07,1.66,.12,.47,.32,.62,.79,.62,.19,0,.44-.11,.47,.23,.03,.31,.02,.57-.34,.71-.99,.38-2.05-.26-2.18-1.33-.06-.45-.11-.91-.08-1.34Z" fill="#fff"/><path d="M33.04,70.83c-.02,.3,.02,.67,.07,1.04,.08,.54,.29,.73,.83,.72,.21,0,.43-.09,.48,.23,.05,.3,0,.54-.31,.69-.79,.36-1.8-.04-2.1-.87-.26-.73-.25-1.5-.21-2.26,.02-.38,.05-.69-.47-.65-.11,0-.18-.06-.21-.17-.09-.35,.13-.73,.48-.8,.24-.05,.3-.21,.31-.42,0-.19,0-.4,.05-.58,.1-.34,.37-.51,.72-.52,.28,0,.46,.11,.43,.42-.01,.18-.04,.36-.06,.54-.06,.43,.06,.57,.48,.57,.07,0,.14,0,.21,0,.52,0,.74,.29,.56,.79-.07,.19-.23,.22-.4,.22q-.87,0-.86,.89s0,.06,0,.16Z" fill="#fff"/><path d="M12.47,68.53c.15,0,.31-.01,.46,0,.57,.07,.75,.43,.47,.94-.07,.13-.16,.18-.3,.15-.14-.03-.27-.06-.41-.08-1-.11-1.61,.41-1.65,1.39-.04,.93,.64,1.65,1.54,1.64,.19,0,.38-.05,.58-.07,.19-.01,.44-.19,.51,.14,.07,.28,.1,.59-.22,.78-.29,.17-.62,.24-.96,.26-1.25,.07-2.5-.87-2.75-2.04-.35-1.66,.93-3.13,2.73-3.12Z" fill="#fff"/><path d="M118.24,68.5c.21,.02,.41,.04,.62,.08,.52,.1,.54,.18,.45,.71-.06,.32-.22,.38-.49,.32-.07-.02-.14-.03-.2-.04-.58-.07-1.12-.05-1.46,.52-.36,.6-.37,1.21,0,1.81,.35,.57,.89,.76,1.54,.67,.1-.01,.19-.04,.29-.04,.24-.02,.53-.21,.6,.24,.05,.38-.1,.66-.47,.76-.58,.15-1.16,.12-1.73-.03-1.24-.32-1.92-1.35-1.78-2.67,.13-1.25,1.18-2.25,2.4-2.3,.08,0,.17,0,.25,0v-.02Z" fill="#fff"/><path d="M133.18,68.53c.14,0,.28,0,.42,0,.2,.01,.4,.05,.48,.27,.09,.24,.06,.49-.05,.73-.05,.11-.16,.1-.25,.09-.1,0-.19-.04-.29-.05-.59-.07-1.15-.08-1.51,.51-.38,.63-.37,1.27,.02,1.88,.36,.56,.91,.67,1.53,.6,.1-.01,.19-.04,.29-.04,.2,0,.47-.2,.54,.16,.06,.31,.05,.62-.29,.79-.27,.13-.56,.16-.85,.16-1.68,.02-2.84-.99-2.85-2.48-.02-1.5,1.19-2.63,2.83-2.62Z" fill="#fff"/><path d="M109.37,69.94c0,1,0,2,0,2.99,0,.48-.16,.61-.64,.56-.11-.01-.22-.03-.33-.03-.29,.01-.39-.14-.39-.41,0-.72,.01-1.44,.01-2.16,0-1.29,.05-2.58-.08-3.86-.06-.54,.05-.65,.57-.68,.69-.03,.85,.08,.86,.64,.01,.98,0,1.97,0,2.95h0Z" fill="#fff"/><path d="M20.17,69.75c-.01-.7,.08-1.79-.06-2.89-.04-.29,.11-.46,.38-.49,.22-.02,.44-.02,.66,0,.22,.01,.36,.14,.37,.37,0,.07,.01,.14,0,.21-.12,2,0,3.99,0,5.99,0,.48-.14,.59-.6,.55-.08,0-.17-.03-.25-.01-.43,.06-.52-.17-.52-.54,.01-.93,0-1.86,0-3.19Z" fill="#fff"/><path d="M61,70.12c0-.9,0-1.8,0-2.7,0-.35,.14-.49,.49-.5,.97-.02,1-.02,.94,.94-.1,1.64-.04,3.27,0,4.9,.02,.59-.11,.76-.56,.76-.73,0-.87-.12-.88-.77,0-.87,0-1.75,0-2.62h0Z" fill="#fff"/><path d="M125.44,71.17c0,.58,0,1.16,0,1.74,0,.49-.1,.56-.65,.56-.58,0-.69-.09-.69-.58,0-.73,0-1.47,.01-2.2,0-.53-.05-1.05-.15-1.57-.05-.26,.04-.4,.31-.43,.19-.02,.38-.05,.58-.07,.18-.01,.35,.03,.39,.23,.07,.34,.19,.23,.37,.08,.34-.29,.73-.45,1.19-.4,.27,.03,.53,.1,.53,.46,0,.42-.24,.78-.56,.81-.15,.01-.3,0-.46,0-.58,0-.78,.15-.88,.71-.04,.22-.04,.44-.05,.66h.07Z" fill="#fff"/><path d="M89.79,71.82c0,.42,0,.83,0,1.25,0,.32-.17,.44-.48,.44-.92-.02-.9-.03-.84-.95,.07-1.08,.09-2.16-.1-3.23-.04-.23-.14-.51,.18-.6,.33-.09,.74-.28,.98,.13,.19,.32,.31,.23,.51,.03,.33-.33,.75-.4,1.19-.35,.34,.04,.49,.21,.46,.56-.05,.6-.19,.73-.78,.71-.9-.03-1.13,.2-1.13,1.11,0,.3,0,.61,0,.91h0Z" fill="#fff"/><path d="M129.45,71.16c0,.61-.01,1.22,0,1.83,.01,.39-.19,.51-.53,.53-.5,.03-.74-.1-.8-.46-.05-.29,.03-.58,.04-.87,.03-1,0-1.99-.12-2.99-.04-.31,.07-.48,.37-.52,.07,0,.14-.02,.21-.03,.63-.11,.81,.03,.82,.68,.01,.61,0,1.22,0,1.83h0Z" fill="#fff"/><path d="M93.79,70.93c.03,.61-.06,1.3,.06,1.99,.06,.35-.06,.56-.44,.6-.57,.06-.86-.08-.89-.48-.03-.37-.01-.75-.01-1.12,0-.89,.04-1.77-.07-2.65-.06-.47,.12-.6,.83-.63,.39-.02,.52,.11,.52,.56,0,.55,0,1.11,0,1.75Z" fill="#fff"/><path d="M75.1,71.19c-.02-.58,.05-1.28-.08-1.97-.06-.32,.09-.5,.41-.54,.12-.01,.25-.04,.37-.05,.41-.04,.56,.08,.57,.5,0,.58,0,1.16,0,1.74,0,.68,0,1.35,.07,2.03,.05,.47-.12,.62-.6,.61-.62-.02-.74-.15-.75-.77,0-.48,0-.97,0-1.56Z" fill="#fff"/><path d="M137.22,68.12c-.68,0-1.41-.53-1.59-1.11-.07-.21-.04-.38,.18-.49,.2-.1,.4-.13,.55,.09,.02,.03,.05,.07,.07,.1,.55,.72,.97,.72,1.49-.02,.18-.26,.37-.32,.63-.17,.27,.16,.22,.38,.1,.61-.33,.59-.81,.93-1.43,.99Z" fill="#fff"/><path d="M129.7,67.2c0,.45-.39,.83-.86,.84-.44,0-.79-.31-.79-.74,0-.47,.38-.86,.83-.87,.44-.01,.81,.34,.81,.77Z" fill="#fff"/><path d="M94.09,67.22c0,.45-.41,.83-.87,.82-.43,0-.77-.34-.77-.76,0-.45,.44-.86,.9-.85,.41,0,.76,.37,.75,.79Z" fill="#fff"/><path d="M75.02,67.3c-.01-.42,.41-.85,.84-.87,.44-.02,.8,.32,.81,.77,0,.44-.39,.84-.86,.84-.43,0-.79-.33-.8-.74Z" fill="#fff"/></svg>